# xmcd
#
# Track frame offsets:
#	150
#	15677
#	29624
#	41469
#	53541
#	64746
#	76845
#	93505
#	108845
#	126419
#	145653
#	165004
#	183475
#	199603
#	230703
#
# Disc length: 3892 seconds
#
# Revision: 0
# Processed by: cddbd v1.5.1PL2 Copyright (c) Steve Scherf et al.
# Submitted via: audiograbber 1.83.01
#
DISCID=bb0f320f
DTITLE=Love Affair - No strings
DYEAR=2000
DGENRE=
TTITLE0=Back in your life again
TTITLE1=Woman Woman
TTITLE2=Sweetness and tenderness
TTITLE3=Do your dream
TTITLE4=She smiled sweetly
TTITLE5=Satisfaction guaranteed
TTITLE6=Hush
TTITLE7=First cut is the deepest
TTITLE8=Handbags and gladrags
TTITLE9=Please stay
TTITLE10=Bad girl
TTITLE11=Speak of peace sing of joy
TTITLE12=Brings my whole world tumbling down
TTITLE13=It's a Love Affair (recorded 1999)
TTITLE14=Videotrack
EXTD=
EXTT0=
EXTT1=
EXTT2=
EXTT3=
EXTT4=
EXTT5=
EXTT6=
EXTT7=
EXTT8=
EXTT9=
EXTT10=
EXTT11=
EXTT12=
EXTT13=
EXTT14=
PLAYORDER=
